<?xml version="1.0" encoding="UTF-8" standalone="no"?>
<!-- Created with Inkscape (http://www.inkscape.org/) -->

<svg
   xmlns:dc="http://purl.org/dc/elements/1.1/"
   xmlns:cc="http://creativecommons.org/ns#"
   xmlns:rdf="http://www.w3.org/1999/02/22-rdf-syntax-ns#"
   xmlns:svg="http://www.w3.org/2000/svg"
   xmlns="http://www.w3.org/2000/svg"
   xmlns:sodipodi="http://sodipodi.sourceforge.net/DTD/sodipodi-0.dtd"
   xmlns:inkscape="http://www.inkscape.org/namespaces/inkscape"
   width="537.48438"
   height="297.21094"
   id="svg2"
   version="1.1"
   inkscape:version="0.47 r22583"
   sodipodi:docname="future_physics.svg">
  <sodipodi:namedview
     id="base"
     pagecolor="#ffffff"
     bordercolor="#666666"
     borderopacity="1.0"
     inkscape:pageopacity="0.0"
     inkscape:pageshadow="2"
     inkscape:zoom="1.97"
     inkscape:cx="263.14704"
     inkscape:cy="142.74698"
     inkscape:document-units="px"
     inkscape:current-layer="layer1"
     showgrid="false"
     inkscape:window-width="1161"
     inkscape:window-height="928"
     inkscape:window-x="606"
     inkscape:window-y="0"
     inkscape:window-maximized="0" />
  <defs
     id="defs4">
    <marker
       style="overflow:visible"
       id="Arrow2Send"
       refX="0"
       refY="0"
       orient="auto"
       inkscape:stockid="Arrow2Send">
      <path
         transform="matrix(-0.3,0,0,-0.3,0.69,0)"
         d="M 8.7185878,4.0337352 -2.2072895,0.01601326 8.7185884,-4.0017078 c -1.7454984,2.3720609 -1.7354408,5.6174519 -6e-7,8.035443 z"
         style="font-size:12px;fill-rule:evenodd;stroke-width:0.625;stroke-linejoin:round"
         id="path3768" />
    </marker>
    <marker
       style="overflow:visible"
       id="Arrow1Send"
       refX="0"
       refY="0"
       orient="auto"
       inkscape:stockid="Arrow1Send">
      <path
         transform="matrix(-0.2,0,0,-0.2,-1.2,0)"
         style="fill-rule:evenodd;stroke:#000000;stroke-width:1pt;marker-start:none"
         d="M 0,0 5,-5 -12.5,0 5,5 0,0 z"
         id="path3750" />
    </marker>
    <marker
       style="overflow:visible"
       id="Arrow1Mend"
       refX="0"
       refY="0"
       orient="auto"
       inkscape:stockid="Arrow1Mend">
      <path
         transform="matrix(-0.4,0,0,-0.4,-4,0)"
         style="fill-rule:evenodd;stroke:#000000;stroke-width:1pt;marker-start:none"
         d="M 0,0 5,-5 -12.5,0 5,5 0,0 z"
         id="path3744" />
    </marker>
    <marker
       style="overflow:visible"
       id="Arrow1Lend"
       refX="0"
       refY="0"
       orient="auto"
       inkscape:stockid="Arrow1Lend">
      <path
         transform="matrix(-0.8,0,0,-0.8,-10,0)"
         style="fill-rule:evenodd;stroke:#000000;stroke-width:1pt;marker-start:none"
         d="M 0,0 5,-5 -12.5,0 5,5 0,0 z"
         id="path3738" />
    </marker>
    <inkscape:perspective
       id="perspective10"
       inkscape:persp3d-origin="372.04724 : 350.78739 : 1"
       inkscape:vp_z="744.09448 : 526.18109 : 1"
       inkscape:vp_y="0 : 1000 : 0"
       inkscape:vp_x="0 : 526.18109 : 1"
       sodipodi:type="inkscape:persp3d" />
    <inkscape:perspective
       sodipodi:type="inkscape:persp3d"
       inkscape:vp_x="0 : 0.5 : 1"
       inkscape:vp_y="0 : 1000 : 0"
       inkscape:vp_z="1 : 0.5 : 1"
       inkscape:persp3d-origin="0.5 : 0.33333333 : 1"
       id="perspective3649" />
    <inkscape:perspective
       sodipodi:type="inkscape:persp3d"
       inkscape:vp_x="0 : 0.5 : 1"
       inkscape:vp_y="0 : 1000 : 0"
       inkscape:vp_z="1 : 0.5 : 1"
       inkscape:persp3d-origin="0.5 : 0.33333333 : 1"
       id="perspective3675" />
    <inkscape:perspective
       sodipodi:type="inkscape:persp3d"
       inkscape:vp_x="0 : 0.5 : 1"
       inkscape:vp_y="0 : 1000 : 0"
       inkscape:vp_z="1 : 0.5 : 1"
       inkscape:persp3d-origin="0.5 : 0.33333333 : 1"
       id="perspective3700" />
    <inkscape:perspective
       sodipodi:type="inkscape:persp3d"
       inkscape:vp_x="0 : 0.5 : 1"
       inkscape:vp_y="0 : 1000 : 0"
       inkscape:vp_z="1 : 0.5 : 1"
       inkscape:persp3d-origin="0.5 : 0.33333333 : 1"
       id="perspective3700-4" />
    <marker
       style="overflow:visible"
       id="Arrow2Send5"
       refX="0"
       refY="0"
       orient="auto"
       inkscape:stockid="Arrow2Send5">
      <path
         transform="matrix(-0.3,0,0,-0.3,0.69,0)"
         d="M 8.7185878,4.0337352 -2.2072895,0.01601326 8.7185884,-4.0017078 c -1.7454984,2.3720609 -1.7354408,5.6174519 -6e-7,8.035443 z"
         style="font-size:12px;fill:#ff00ff;fill-rule:evenodd;stroke:#ff00ff;stroke-width:0.625;stroke-linejoin:round"
         id="path5904" />
    </marker>
    <inkscape:perspective
       id="perspective5963"
       inkscape:persp3d-origin="0.5 : 0.33333333 : 1"
       inkscape:vp_z="1 : 0.5 : 1"
       inkscape:vp_y="0 : 1000 : 0"
       inkscape:vp_x="0 : 0.5 : 1"
       sodipodi:type="inkscape:persp3d" />
    <marker
       style="overflow:visible"
       id="Arrow2Send5-0"
       refX="0"
       refY="0"
       orient="auto"
       inkscape:stockid="Arrow2Send5">
      <path
         transform="matrix(-0.3,0,0,-0.3,0.69,0)"
         d="M 8.7185878,4.0337352 -2.2072895,0.01601326 8.7185884,-4.0017078 c -1.7454984,2.3720609 -1.7354408,5.6174519 -6e-7,8.035443 z"
         style="font-size:12px;fill:#ff00ff;fill-rule:evenodd;stroke:#ff00ff;stroke-width:0.625;stroke-linejoin:round"
         id="path5904-9" />
    </marker>
    <inkscape:perspective
       id="perspective5963-9"
       inkscape:persp3d-origin="0.5 : 0.33333333 : 1"
       inkscape:vp_z="1 : 0.5 : 1"
       inkscape:vp_y="0 : 1000 : 0"
       inkscape:vp_x="0 : 0.5 : 1"
       sodipodi:type="inkscape:persp3d" />
    <marker
       style="overflow:visible"
       id="Arrow2Send5-6"
       refX="0"
       refY="0"
       orient="auto"
       inkscape:stockid="Arrow2Send5">
      <path
         transform="matrix(-0.3,0,0,-0.3,0.69,0)"
         d="M 8.7185878,4.0337352 -2.2072895,0.01601326 8.7185884,-4.0017078 c -1.7454984,2.3720609 -1.7354408,5.6174519 -6e-7,8.035443 z"
         style="font-size:12px;fill:#ff00ff;fill-rule:evenodd;stroke:#ff00ff;stroke-width:0.625;stroke-linejoin:round"
         id="path5904-7" />
    </marker>
    <inkscape:perspective
       id="perspective5963-7"
       inkscape:persp3d-origin="0.5 : 0.33333333 : 1"
       inkscape:vp_z="1 : 0.5 : 1"
       inkscape:vp_y="0 : 1000 : 0"
       inkscape:vp_x="0 : 0.5 : 1"
       sodipodi:type="inkscape:persp3d" />
    <marker
       style="overflow:visible"
       id="Arrow2Send5-4"
       refX="0"
       refY="0"
       orient="auto"
       inkscape:stockid="Arrow2Send5">
      <path
         transform="matrix(-0.3,0,0,-0.3,0.69,0)"
         d="M 8.7185878,4.0337352 -2.2072895,0.01601326 8.7185884,-4.0017078 c -1.7454984,2.3720609 -1.7354408,5.6174519 -6e-7,8.035443 z"
         style="font-size:12px;fill:#ff00ff;fill-rule:evenodd;stroke:#ff00ff;stroke-width:0.625;stroke-linejoin:round"
         id="path5904-99" />
    </marker>
    <inkscape:perspective
       id="perspective2853"
       inkscape:persp3d-origin="0.5 : 0.33333333 : 1"
       inkscape:vp_z="1 : 0.5 : 1"
       inkscape:vp_y="0 : 1000 : 0"
       inkscape:vp_x="0 : 0.5 : 1"
       sodipodi:type="inkscape:persp3d" />
    <inkscape:perspective
       id="perspective2853-1"
       inkscape:persp3d-origin="0.5 : 0.33333333 : 1"
       inkscape:vp_z="1 : 0.5 : 1"
       inkscape:vp_y="0 : 1000 : 0"
       inkscape:vp_x="0 : 0.5 : 1"
       sodipodi:type="inkscape:persp3d" />
    <inkscape:perspective
       id="perspective2853-7"
       inkscape:persp3d-origin="0.5 : 0.33333333 : 1"
       inkscape:vp_z="1 : 0.5 : 1"
       inkscape:vp_y="0 : 1000 : 0"
       inkscape:vp_x="0 : 0.5 : 1"
       sodipodi:type="inkscape:persp3d" />
    <inkscape:perspective
       id="perspective2853-9"
       inkscape:persp3d-origin="0.5 : 0.33333333 : 1"
       inkscape:vp_z="1 : 0.5 : 1"
       inkscape:vp_y="0 : 1000 : 0"
       inkscape:vp_x="0 : 0.5 : 1"
       sodipodi:type="inkscape:persp3d" />
    <inkscape:perspective
       id="perspective2853-3"
       inkscape:persp3d-origin="0.5 : 0.33333333 : 1"
       inkscape:vp_z="1 : 0.5 : 1"
       inkscape:vp_y="0 : 1000 : 0"
       inkscape:vp_x="0 : 0.5 : 1"
       sodipodi:type="inkscape:persp3d" />
    <inkscape:perspective
       sodipodi:type="inkscape:persp3d"
       inkscape:vp_x="0 : 0.5 : 1"
       inkscape:vp_y="0 : 1000 : 0"
       inkscape:vp_z="1 : 0.5 : 1"
       inkscape:persp3d-origin="0.5 : 0.33333333 : 1"
       id="perspective5159" />
    <marker
       style="overflow:visible"
       id="Arrow2Send-3"
       refX="0"
       refY="0"
       orient="auto"
       inkscape:stockid="Arrow2Send">
      <path
         transform="matrix(-0.3,0,0,-0.3,0.69,0)"
         d="M 8.7185878,4.0337352 -2.2072895,0.01601326 8.7185884,-4.0017078 c -1.7454984,2.3720609 -1.7354408,5.6174519 -6e-7,8.035443 z"
         style="font-size:12px;fill-rule:evenodd;stroke-width:0.625;stroke-linejoin:round"
         id="path3768-3" />
    </marker>
    <inkscape:perspective
       sodipodi:type="inkscape:persp3d"
       inkscape:vp_x="0 : 0.5 : 1"
       inkscape:vp_y="0 : 1000 : 0"
       inkscape:vp_z="1 : 0.5 : 1"
       inkscape:persp3d-origin="0.5 : 0.33333333 : 1"
       id="perspective5187" />
    <marker
       style="overflow:visible"
       id="Arrow2Send-8"
       refX="0"
       refY="0"
       orient="auto"
       inkscape:stockid="Arrow2Send">
      <path
         transform="matrix(-0.3,0,0,-0.3,0.69,0)"
         d="M 8.7185878,4.0337352 -2.2072895,0.01601326 8.7185884,-4.0017078 c -1.7454984,2.3720609 -1.7354408,5.6174519 -6e-7,8.035443 z"
         style="font-size:12px;fill-rule:evenodd;stroke-width:0.625;stroke-linejoin:round"
         id="path3768-4" />
    </marker>
    <inkscape:perspective
       sodipodi:type="inkscape:persp3d"
       inkscape:vp_x="0 : 0.5 : 1"
       inkscape:vp_y="0 : 1000 : 0"
       inkscape:vp_z="1 : 0.5 : 1"
       inkscape:persp3d-origin="0.5 : 0.33333333 : 1"
       id="perspective5215" />
    <marker
       style="overflow:visible"
       id="Arrow2Send-35"
       refX="0"
       refY="0"
       orient="auto"
       inkscape:stockid="Arrow2Send">
      <path
         transform="matrix(-0.3,0,0,-0.3,0.69,0)"
         d="M 8.7185878,4.0337352 -2.2072895,0.01601326 8.7185884,-4.0017078 c -1.7454984,2.3720609 -1.7354408,5.6174519 -6e-7,8.035443 z"
         style="font-size:12px;fill-rule:evenodd;stroke-width:0.625;stroke-linejoin:round"
         id="path3768-1" />
    </marker>
    <inkscape:perspective
       sodipodi:type="inkscape:persp3d"
       inkscape:vp_x="0 : 0.5 : 1"
       inkscape:vp_y="0 : 1000 : 0"
       inkscape:vp_z="1 : 0.5 : 1"
       inkscape:persp3d-origin="0.5 : 0.33333333 : 1"
       id="perspective5243" />
    <marker
       style="overflow:visible"
       id="Arrow2Send-7"
       refX="0"
       refY="0"
       orient="auto"
       inkscape:stockid="Arrow2Send">
      <path
         transform="matrix(-0.3,0,0,-0.3,0.69,0)"
         d="M 8.7185878,4.0337352 -2.2072895,0.01601326 8.7185884,-4.0017078 c -1.7454984,2.3720609 -1.7354408,5.6174519 -6e-7,8.035443 z"
         style="font-size:12px;fill-rule:evenodd;stroke-width:0.625;stroke-linejoin:round"
         id="path3768-2" />
    </marker>
    <inkscape:perspective
       sodipodi:type="inkscape:persp3d"
       inkscape:vp_x="0 : 0.5 : 1"
       inkscape:vp_y="0 : 1000 : 0"
       inkscape:vp_z="1 : 0.5 : 1"
       inkscape:persp3d-origin="0.5 : 0.33333333 : 1"
       id="perspective5271" />
    <marker
       style="overflow:visible"
       id="Arrow2Send-88"
       refX="0"
       refY="0"
       orient="auto"
       inkscape:stockid="Arrow2Send">
      <path
         transform="matrix(-0.3,0,0,-0.3,0.69,0)"
         d="M 8.7185878,4.0337352 -2.2072895,0.01601326 8.7185884,-4.0017078 c -1.7454984,2.3720609 -1.7354408,5.6174519 -6e-7,8.035443 z"
         style="font-size:12px;fill-rule:evenodd;stroke-width:0.625;stroke-linejoin:round"
         id="path3768-8" />
    </marker>
    <inkscape:perspective
       sodipodi:type="inkscape:persp3d"
       inkscape:vp_x="0 : 0.5 : 1"
       inkscape:vp_y="0 : 1000 : 0"
       inkscape:vp_z="1 : 0.5 : 1"
       inkscape:persp3d-origin="0.5 : 0.33333333 : 1"
       id="perspective5299" />
    <marker
       style="overflow:visible"
       id="Arrow2Send-76"
       refX="0"
       refY="0"
       orient="auto"
       inkscape:stockid="Arrow2Send">
      <path
         transform="matrix(-0.3,0,0,-0.3,0.69,0)"
         d="M 8.7185878,4.0337352 -2.2072895,0.01601326 8.7185884,-4.0017078 c -1.7454984,2.3720609 -1.7354408,5.6174519 -6e-7,8.035443 z"
         style="font-size:12px;fill-rule:evenodd;stroke-width:0.625;stroke-linejoin:round"
         id="path3768-85" />
    </marker>
    <inkscape:perspective
       sodipodi:type="inkscape:persp3d"
       inkscape:vp_x="0 : 0.5 : 1"
       inkscape:vp_y="0 : 1000 : 0"
       inkscape:vp_z="1 : 0.5 : 1"
       inkscape:persp3d-origin="0.5 : 0.33333333 : 1"
       id="perspective5327" />
    <marker
       style="overflow:visible"
       id="Arrow2Send-2"
       refX="0"
       refY="0"
       orient="auto"
       inkscape:stockid="Arrow2Send">
      <path
         transform="matrix(-0.3,0,0,-0.3,0.69,0)"
         d="M 8.7185878,4.0337352 -2.2072895,0.01601326 8.7185884,-4.0017078 c -1.7454984,2.3720609 -1.7354408,5.6174519 -6e-7,8.035443 z"
         style="font-size:12px;fill-rule:evenodd;stroke-width:0.625;stroke-linejoin:round"
         id="path3768-9" />
    </marker>
    <inkscape:perspective
       sodipodi:type="inkscape:persp3d"
       inkscape:vp_x="0 : 0.5 : 1"
       inkscape:vp_y="0 : 1000 : 0"
       inkscape:vp_z="1 : 0.5 : 1"
       inkscape:persp3d-origin="0.5 : 0.33333333 : 1"
       id="perspective5355" />
    <marker
       style="overflow:visible"
       id="Arrow2Send-6"
       refX="0"
       refY="0"
       orient="auto"
       inkscape:stockid="Arrow2Send">
      <path
         transform="matrix(-0.3,0,0,-0.3,0.69,0)"
         d="M 8.7185878,4.0337352 -2.2072895,0.01601326 8.7185884,-4.0017078 c -1.7454984,2.3720609 -1.7354408,5.6174519 -6e-7,8.035443 z"
         style="font-size:12px;fill-rule:evenodd;stroke-width:0.625;stroke-linejoin:round"
         id="path3768-7" />
    </marker>
    <inkscape:perspective
       sodipodi:type="inkscape:persp3d"
       inkscape:vp_x="0 : 0.5 : 1"
       inkscape:vp_y="0 : 1000 : 0"
       inkscape:vp_z="1 : 0.5 : 1"
       inkscape:persp3d-origin="0.5 : 0.33333333 : 1"
       id="perspective5383" />
    <marker
       style="overflow:visible"
       id="Arrow2Send-4"
       refX="0"
       refY="0"
       orient="auto"
       inkscape:stockid="Arrow2Send">
      <path
         transform="matrix(-0.3,0,0,-0.3,0.69,0)"
         d="M 8.7185878,4.0337352 -2.2072895,0.01601326 8.7185884,-4.0017078 c -1.7454984,2.3720609 -1.7354408,5.6174519 -6e-7,8.035443 z"
         style="font-size:12px;fill-rule:evenodd;stroke-width:0.625;stroke-linejoin:round"
         id="path3768-6" />
    </marker>
    <marker
       style="overflow:visible"
       id="Arrow2SendT"
       refX="0"
       refY="0"
       orient="auto"
       inkscape:stockid="Arrow2SendT">
      <path
         transform="matrix(-0.3,0,0,-0.3,0.69,0)"
         d="M 8.7185878,4.0337352 -2.2072895,0.01601326 8.7185884,-4.0017078 c -1.7454984,2.3720609 -1.7354408,5.6174519 -6e-7,8.035443 z"
         style="stroke-linejoin:round;font-size:12px;fill-rule:evenodd;stroke:#724dff;stroke-width:0.625;fill:#724dff"
         id="path5463" />
    </marker>
    <marker
       style="overflow:visible"
       id="Arrow2SendQ"
       refX="0"
       refY="0"
       orient="auto"
       inkscape:stockid="Arrow2SendQ">
      <path
         transform="matrix(-0.3,0,0,-0.3,0.69,0)"
         d="M 8.7185878,4.0337352 -2.2072895,0.01601326 8.7185884,-4.0017078 c -1.7454984,2.3720609 -1.7354408,5.6174519 -6e-7,8.035443 z"
         style="stroke-linejoin:round;font-size:12px;fill-rule:evenodd;stroke:#724dff;stroke-width:0.625;fill:#724dff"
         id="path5466" />
    </marker>
    <marker
       style="overflow:visible"
       id="Arrow2SendW"
       refX="0"
       refY="0"
       orient="auto"
       inkscape:stockid="Arrow2SendW">
      <path
         transform="matrix(-0.3,0,0,-0.3,0.69,0)"
         d="M 8.7185878,4.0337352 -2.2072895,0.01601326 8.7185884,-4.0017078 c -1.7454984,2.3720609 -1.7354408,5.6174519 -6e-7,8.035443 z"
         style="stroke-linejoin:round;font-size:12px;fill-rule:evenodd;stroke:#724dff;stroke-width:0.625;fill:#724dff"
         id="path5469" />
    </marker>
    <marker
       style="overflow:visible"
       id="Arrow2SendZ"
       refX="0"
       refY="0"
       orient="auto"
       inkscape:stockid="Arrow2SendZ">
      <path
         transform="matrix(-0.3,0,0,-0.3,0.69,0)"
         d="M 8.7185878,4.0337352 -2.2072895,0.01601326 8.7185884,-4.0017078 c -1.7454984,2.3720609 -1.7354408,5.6174519 -6e-7,8.035443 z"
         style="stroke-linejoin:round;font-size:12px;fill-rule:evenodd;stroke:#724dff;stroke-width:0.625;fill:#724dff"
         id="path5472" />
    </marker>
    <marker
       style="overflow:visible"
       id="Arrow2Sendx"
       refX="0"
       refY="0"
       orient="auto"
       inkscape:stockid="Arrow2Sendx">
      <path
         transform="matrix(-0.3,0,0,-0.3,0.69,0)"
         d="M 8.7185878,4.0337352 -2.2072895,0.01601326 8.7185884,-4.0017078 c -1.7454984,2.3720609 -1.7354408,5.6174519 -6e-7,8.035443 z"
         style="stroke-linejoin:round;font-size:12px;fill-rule:evenodd;stroke:#724dff;stroke-width:0.625;fill:#724dff"
         id="path5475" />
    </marker>
    <marker
       style="overflow:visible"
       id="Arrow2Send1"
       refX="0"
       refY="0"
       orient="auto"
       inkscape:stockid="Arrow2Send1">
      <path
         transform="matrix(-0.3,0,0,-0.3,0.69,0)"
         d="M 8.7185878,4.0337352 -2.2072895,0.01601326 8.7185884,-4.0017078 c -1.7454984,2.3720609 -1.7354408,5.6174519 -6e-7,8.035443 z"
         style="stroke-linejoin:round;font-size:12px;fill-rule:evenodd;stroke:#724dff;stroke-width:0.625;fill:#724dff"
         id="path5478" />
    </marker>
    <marker
       style="overflow:visible"
       id="Arrow2Sendf"
       refX="0"
       refY="0"
       orient="auto"
       inkscape:stockid="Arrow2Sendf">
      <path
         transform="matrix(-0.3,0,0,-0.3,0.69,0)"
         d="M 8.7185878,4.0337352 -2.2072895,0.01601326 8.7185884,-4.0017078 c -1.7454984,2.3720609 -1.7354408,5.6174519 -6e-7,8.035443 z"
         style="stroke-linejoin:round;font-size:12px;fill-rule:evenodd;stroke:#724dff;stroke-width:0.625;fill:#724dff"
         id="path5481" />
    </marker>
    <marker
       style="overflow:visible"
       id="Arrow2Sendq"
       refX="0"
       refY="0"
       orient="auto"
       inkscape:stockid="Arrow2Sendq">
      <path
         transform="matrix(-0.3,0,0,-0.3,0.69,0)"
         d="M 8.7185878,4.0337352 -2.2072895,0.01601326 8.7185884,-4.0017078 c -1.7454984,2.3720609 -1.7354408,5.6174519 -6e-7,8.035443 z"
         style="stroke-linejoin:round;font-size:12px;fill-rule:evenodd;stroke:#724dff;stroke-width:0.625;fill:#724dff"
         id="path5484" />
    </marker>
    <marker
       style="overflow:visible"
       id="Arrow2SendU"
       refX="0"
       refY="0"
       orient="auto"
       inkscape:stockid="Arrow2SendU">
      <path
         transform="matrix(-0.3,0,0,-0.3,0.69,0)"
         d="M 8.7185878,4.0337352 -2.2072895,0.01601326 8.7185884,-4.0017078 c -1.7454984,2.3720609 -1.7354408,5.6174519 -6e-7,8.035443 z"
         style="stroke-linejoin:round;font-size:12px;fill-rule:evenodd;stroke:#724dff;stroke-width:0.625;fill:#724dff"
         id="path5487" />
    </marker>
    <inkscape:perspective
       id="perspective5668"
       inkscape:persp3d-origin="0.5 : 0.33333333 : 1"
       inkscape:vp_z="1 : 0.5 : 1"
       inkscape:vp_y="0 : 1000 : 0"
       inkscape:vp_x="0 : 0.5 : 1"
       sodipodi:type="inkscape:persp3d" />
    <marker
       style="overflow:visible"
       id="Arrow2SendZ-4"
       refX="0"
       refY="0"
       orient="auto"
       inkscape:stockid="Arrow2SendZ">
      <path
         transform="matrix(-0.3,0,0,-0.3,0.69,0)"
         d="M 8.7185878,4.0337352 -2.2072895,0.01601326 8.7185884,-4.0017078 c -1.7454984,2.3720609 -1.7354408,5.6174519 -6e-7,8.035443 z"
         style="font-size:12px;fill:#724dff;fill-rule:evenodd;stroke:#724dff;stroke-width:0.625;stroke-linejoin:round"
         id="path5472-4" />
    </marker>
    <inkscape:perspective
       id="perspective3136"
       inkscape:persp3d-origin="0.5 : 0.33333333 : 1"
       inkscape:vp_z="1 : 0.5 : 1"
       inkscape:vp_y="0 : 1000 : 0"
       inkscape:vp_x="0 : 0.5 : 1"
       sodipodi:type="inkscape:persp3d" />
    <inkscape:perspective
       id="perspective3187"
       inkscape:persp3d-origin="0.5 : 0.33333333 : 1"
       inkscape:vp_z="1 : 0.5 : 1"
       inkscape:vp_y="0 : 1000 : 0"
       inkscape:vp_x="0 : 0.5 : 1"
       sodipodi:type="inkscape:persp3d" />
    <inkscape:perspective
       id="perspective2942"
       inkscape:persp3d-origin="0.5 : 0.33333333 : 1"
       inkscape:vp_z="1 : 0.5 : 1"
       inkscape:vp_y="0 : 1000 : 0"
       inkscape:vp_x="0 : 0.5 : 1"
       sodipodi:type="inkscape:persp3d" />
    <marker
       style="overflow:visible"
       id="Arrow2Sendf-8"
       refX="0"
       refY="0"
       orient="auto"
       inkscape:stockid="Arrow2Sendf">
      <path
         transform="matrix(-0.3,0,0,-0.3,0.69,0)"
         d="M 8.7185878,4.0337352 -2.2072895,0.01601326 8.7185884,-4.0017078 c -1.7454984,2.3720609 -1.7354408,5.6174519 -6e-7,8.035443 z"
         style="font-size:12px;fill:#724dff;fill-rule:evenodd;stroke:#724dff;stroke-width:0.625;stroke-linejoin:round"
         id="path5481-4" />
    </marker>
    <inkscape:perspective
       id="perspective3251"
       inkscape:persp3d-origin="0.5 : 0.33333333 : 1"
       inkscape:vp_z="1 : 0.5 : 1"
       inkscape:vp_y="0 : 1000 : 0"
       inkscape:vp_x="0 : 0.5 : 1"
       sodipodi:type="inkscape:persp3d" />
    <marker
       style="overflow:visible"
       id="Arrow2Sendf-0"
       refX="0"
       refY="0"
       orient="auto"
       inkscape:stockid="Arrow2Sendf">
      <path
         transform="matrix(-0.3,0,0,-0.3,0.69,0)"
         d="M 8.7185878,4.0337352 -2.2072895,0.01601326 8.7185884,-4.0017078 c -1.7454984,2.3720609 -1.7354408,5.6174519 -6e-7,8.035443 z"
         style="font-size:12px;fill:#724dff;fill-rule:evenodd;stroke:#724dff;stroke-width:0.625;stroke-linejoin:round"
         id="path5481-46" />
    </marker>
    <inkscape:perspective
       id="perspective4227"
       inkscape:persp3d-origin="0.5 : 0.33333333 : 1"
       inkscape:vp_z="1 : 0.5 : 1"
       inkscape:vp_y="0 : 1000 : 0"
       inkscape:vp_x="0 : 0.5 : 1"
       sodipodi:type="inkscape:persp3d" />
    <marker
       style="overflow:visible"
       id="Arrow2Sendf-6"
       refX="0"
       refY="0"
       orient="auto"
       inkscape:stockid="Arrow2Sendf">
      <path
         transform="matrix(-0.3,0,0,-0.3,0.69,0)"
         d="M 8.7185878,4.0337352 -2.2072895,0.01601326 8.7185884,-4.0017078 c -1.7454984,2.3720609 -1.7354408,5.6174519 -6e-7,8.035443 z"
         style="font-size:12px;fill:#724dff;fill-rule:evenodd;stroke:#724dff;stroke-width:0.625;stroke-linejoin:round"
         id="path5481-6" />
    </marker>
    <inkscape:perspective
       id="perspective4255"
       inkscape:persp3d-origin="0.5 : 0.33333333 : 1"
       inkscape:vp_z="1 : 0.5 : 1"
       inkscape:vp_y="0 : 1000 : 0"
       inkscape:vp_x="0 : 0.5 : 1"
       sodipodi:type="inkscape:persp3d" />
    <inkscape:perspective
       id="perspective4280"
       inkscape:persp3d-origin="0.5 : 0.33333333 : 1"
       inkscape:vp_z="1 : 0.5 : 1"
       inkscape:vp_y="0 : 1000 : 0"
       inkscape:vp_x="0 : 0.5 : 1"
       sodipodi:type="inkscape:persp3d" />
    <inkscape:perspective
       id="perspective4309"
       inkscape:persp3d-origin="0.5 : 0.33333333 : 1"
       inkscape:vp_z="1 : 0.5 : 1"
       inkscape:vp_y="0 : 1000 : 0"
       inkscape:vp_x="0 : 0.5 : 1"
       sodipodi:type="inkscape:persp3d" />
    <inkscape:perspective
       id="perspective4334"
       inkscape:persp3d-origin="0.5 : 0.33333333 : 1"
       inkscape:vp_z="1 : 0.5 : 1"
       inkscape:vp_y="0 : 1000 : 0"
       inkscape:vp_x="0 : 0.5 : 1"
       sodipodi:type="inkscape:persp3d" />
    <inkscape:perspective
       id="perspective4359"
       inkscape:persp3d-origin="0.5 : 0.33333333 : 1"
       inkscape:vp_z="1 : 0.5 : 1"
       inkscape:vp_y="0 : 1000 : 0"
       inkscape:vp_x="0 : 0.5 : 1"
       sodipodi:type="inkscape:persp3d" />
    <marker
       style="overflow:visible"
       id="Arrow2Sendf-5"
       refX="0"
       refY="0"
       orient="auto"
       inkscape:stockid="Arrow2Sendf">
      <path
         transform="matrix(-0.3,0,0,-0.3,0.69,0)"
         d="M 8.7185878,4.0337352 -2.2072895,0.01601326 8.7185884,-4.0017078 c -1.7454984,2.3720609 -1.7354408,5.6174519 -6e-7,8.035443 z"
         style="font-size:12px;fill:#724dff;fill-rule:evenodd;stroke:#724dff;stroke-width:0.625;stroke-linejoin:round"
         id="path5481-5" />
    </marker>
    <inkscape:perspective
       id="perspective4387"
       inkscape:persp3d-origin="0.5 : 0.33333333 : 1"
       inkscape:vp_z="1 : 0.5 : 1"
       inkscape:vp_y="0 : 1000 : 0"
       inkscape:vp_x="0 : 0.5 : 1"
       sodipodi:type="inkscape:persp3d" />
    <marker
       style="overflow:visible"
       id="Arrow2Sendf-64"
       refX="0"
       refY="0"
       orient="auto"
       inkscape:stockid="Arrow2Sendf">
      <path
         transform="matrix(-0.3,0,0,-0.3,0.69,0)"
         d="M 8.7185878,4.0337352 -2.2072895,0.01601326 8.7185884,-4.0017078 c -1.7454984,2.3720609 -1.7354408,5.6174519 -6e-7,8.035443 z"
         style="font-size:12px;fill:#724dff;fill-rule:evenodd;stroke:#724dff;stroke-width:0.625;stroke-linejoin:round"
         id="path5481-0" />
    </marker>
    <inkscape:perspective
       id="perspective4415"
       inkscape:persp3d-origin="0.5 : 0.33333333 : 1"
       inkscape:vp_z="1 : 0.5 : 1"
       inkscape:vp_y="0 : 1000 : 0"
       inkscape:vp_x="0 : 0.5 : 1"
       sodipodi:type="inkscape:persp3d" />
    <marker
       style="overflow:visible"
       id="Arrow2Sendf-9"
       refX="0"
       refY="0"
       orient="auto"
       inkscape:stockid="Arrow2Sendf">
      <path
         transform="matrix(-0.3,0,0,-0.3,0.69,0)"
         d="M 8.7185878,4.0337352 -2.2072895,0.01601326 8.7185884,-4.0017078 c -1.7454984,2.3720609 -1.7354408,5.6174519 -6e-7,8.035443 z"
         style="font-size:12px;fill:#724dff;fill-rule:evenodd;stroke:#724dff;stroke-width:0.625;stroke-linejoin:round"
         id="path5481-1" />
    </marker>
    <inkscape:perspective
       id="perspective4443"
       inkscape:persp3d-origin="0.5 : 0.33333333 : 1"
       inkscape:vp_z="1 : 0.5 : 1"
       inkscape:vp_y="0 : 1000 : 0"
       inkscape:vp_x="0 : 0.5 : 1"
       sodipodi:type="inkscape:persp3d" />
    <inkscape:perspective
       id="perspective4479"
       inkscape:persp3d-origin="0.5 : 0.33333333 : 1"
       inkscape:vp_z="1 : 0.5 : 1"
       inkscape:vp_y="0 : 1000 : 0"
       inkscape:vp_x="0 : 0.5 : 1"
       sodipodi:type="inkscape:persp3d" />
    <inkscape:perspective
       id="perspective4504"
       inkscape:persp3d-origin="0.5 : 0.33333333 : 1"
       inkscape:vp_z="1 : 0.5 : 1"
       inkscape:vp_y="0 : 1000 : 0"
       inkscape:vp_x="0 : 0.5 : 1"
       sodipodi:type="inkscape:persp3d" />
    <inkscape:perspective
       id="perspective4533"
       inkscape:persp3d-origin="0.5 : 0.33333333 : 1"
       inkscape:vp_z="1 : 0.5 : 1"
       inkscape:vp_y="0 : 1000 : 0"
       inkscape:vp_x="0 : 0.5 : 1"
       sodipodi:type="inkscape:persp3d" />
    <inkscape:perspective
       id="perspective4566"
       inkscape:persp3d-origin="0.5 : 0.33333333 : 1"
       inkscape:vp_z="1 : 0.5 : 1"
       inkscape:vp_y="0 : 1000 : 0"
       inkscape:vp_x="0 : 0.5 : 1"
       sodipodi:type="inkscape:persp3d" />
  </defs>
  <metadata
     id="metadata7">
    <rdf:RDF>
      <cc:Work
         rdf:about="">
        <dc:format>image/svg+xml</dc:format>
        <dc:type
           rdf:resource="http://purl.org/dc/dcmitype/StillImage" />
        <dc:title></dc:title>
      </cc:Work>
    </rdf:RDF>
  </metadata>
  <g
     id="layer1"
     inkscape:groupmode="layer"
     inkscape:label="Layer 1"
     transform="translate(-121.75781,-243.94031)">
    <text
       xml:space="preserve"
       style="font-size:24px;font-style:normal;font-variant:normal;font-weight:normal;font-stretch:normal;text-align:center;line-height:100%;letter-spacing:normal;word-spacing:normal;writing-mode:lr-tb;text-anchor:middle;fill:#724dff;fill-opacity:1;stroke:none;font-family:Sans;-inkscape-font-specification:Sans"
       x="200.7511"
       y="280.87289"
       id="text2926"
       sodipodi:linespacing="100%"><tspan
         sodipodi:role="line"
         id="tspan2928"
         x="200.7511"
         y="280.87289">spacetime</tspan><tspan
         sodipodi:role="line"
         x="200.7511"
         y="304.87289"
         id="tspan2930">curvature</tspan></text>
    <text
       xml:space="preserve"
       style="font-size:24px;font-style:normal;font-variant:normal;font-weight:normal;font-stretch:normal;text-align:center;line-height:100%;letter-spacing:normal;word-spacing:normal;writing-mode:lr-tb;text-anchor:middle;fill:#724dff;fill-opacity:1;stroke:none;font-family:Sans;-inkscape-font-specification:Sans"
       x="529.02002"
       y="424.1843"
       id="text2926-4"
       sodipodi:linespacing="100%"><tspan
         sodipodi:role="line"
         x="529.02002"
         y="424.1843"
         id="tspan2930-5">matter</tspan></text>
    <path
       sodipodi:nodetypes="cc"
       id="path4555-8"
       d="M 308.83798,342.13129 265.07122,311.36294"
       style="fill:none;stroke:#724dff;stroke-width:3;stroke-linecap:round;stroke-linejoin:round;stroke-miterlimit:4;stroke-opacity:1;stroke-dasharray:none;marker-end:url(#Arrow2Sendf)" />
    <path
       sodipodi:nodetypes="cc"
       id="path4555-8-1"
       d="m 439.33811,368.40712 43.76676,30.76835"
       style="fill:none;stroke:#724dff;stroke-width:3;stroke-linecap:round;stroke-linejoin:round;stroke-miterlimit:4;stroke-opacity:1;stroke-dasharray:none;marker-end:url(#Arrow2Sendf)" />
    <path
       sodipodi:type="arc"
       style="fill:none;stroke:#724dff;stroke-width:3;stroke-linecap:round;stroke-linejoin:round;stroke-miterlimit:4;stroke-opacity:1;stroke-dasharray:none"
       id="path3271"
       sodipodi:cx="229.0533"
       sodipodi:cy="74.282051"
       sodipodi:rx="20.210587"
       sodipodi:ry="24.497681"
       d="m 249.26389,74.282051 a 20.210587,24.497681 0 1 1 -40.42118,0 20.210587,24.497681 0 1 1 40.42118,0 z"
       transform="translate(165.85363,273.33752)" />
    <path
       sodipodi:nodetypes="cc"
       id="path4555-8-0"
       d="m 406.29941,327.42089 43.76676,-30.76835"
       style="fill:none;stroke:#724dff;stroke-width:3;stroke-linecap:round;stroke-linejoin:round;stroke-miterlimit:4;stroke-opacity:1;stroke-dasharray:none;marker-end:url(#Arrow2Sendf)" />
    <text
       xml:space="preserve"
       style="font-size:24px;font-style:normal;font-variant:normal;font-weight:normal;font-stretch:normal;text-align:center;line-height:100%;letter-spacing:normal;word-spacing:normal;writing-mode:lr-tb;text-anchor:middle;fill:#724dff;fill-opacity:1;stroke:none;font-family:Sans;-inkscape-font-specification:Sans"
       x="519.99188"
       y="289.11926"
       id="text2926-4-5"
       sodipodi:linespacing="100%"><tspan
         sodipodi:role="line"
         x="519.99188"
         y="289.11926"
         id="tspan2930-5-1">constants</tspan></text>
    <text
       xml:space="preserve"
       style="font-size:24px;font-style:normal;font-variant:normal;font-weight:normal;font-stretch:normal;text-align:center;line-height:100%;letter-spacing:normal;word-spacing:normal;writing-mode:lr-tb;text-anchor:middle;fill:#724dff;fill-opacity:1;stroke:none;font-family:Sans;-inkscape-font-specification:Sans"
       x="226.41508"
       y="426.9187"
       id="text2926-4-5-5"
       sodipodi:linespacing="100%"><tspan
         sodipodi:role="line"
         x="226.41508"
         y="426.9187"
         id="tspan2930-5-1-9">hydrodynamics</tspan></text>
    <text
       xml:space="preserve"
       style="font-size:32px;font-style:normal;font-variant:normal;font-weight:normal;font-stretch:normal;text-align:start;line-height:100%;writing-mode:lr-tb;text-anchor:start;fill:#000000;fill-opacity:1;stroke:none;font-family:Sans;-inkscape-font-specification:Sans"
       x="240.6897"
       y="259.85199"
       id="text4297"
       sodipodi:linespacing="100%"
       transform="translate(121.75781,243.94031)"><tspan
         sodipodi:role="line"
         id="tspan4299"
         x="240.6897"
         y="259.85199" /></text>
    <text
       xml:space="preserve"
       style="font-size:24px;font-style:normal;font-variant:normal;font-weight:normal;font-stretch:normal;text-align:center;line-height:100%;letter-spacing:normal;word-spacing:normal;writing-mode:lr-tb;text-anchor:middle;fill:#724dff;fill-opacity:1;stroke:none;font-family:Sans;-inkscape-font-specification:Sans"
       x="366.88135"
       y="468.56476"
       id="text2926-4-2"
       sodipodi:linespacing="100%"><tspan
         sodipodi:role="line"
         x="366.88135"
         y="468.56476"
         id="tspan2930-5-6">el.-magnetism</tspan></text>
    <text
       xml:space="preserve"
       style="font-size:24px;font-style:normal;font-variant:normal;font-weight:normal;font-stretch:normal;text-align:center;line-height:100%;letter-spacing:normal;word-spacing:normal;writing-mode:lr-tb;text-anchor:middle;fill:#ff0000;fill-opacity:1;stroke:none;font-family:Sans;-inkscape-font-specification:Sans"
       x="540.81488"
       y="506.53613"
       id="text2926-4-2-1"
       sodipodi:linespacing="100%"><tspan
         sodipodi:role="line"
         x="540.81488"
         y="506.53613"
         id="tspan2930-5-6-3">particle radiation</tspan></text>
    <path
       sodipodi:nodetypes="cc"
       id="path4555-8-1-1"
       d="M 511.548,432.12467 C 426.18741,459.06733 386.96204,414.25945 327.53202,418.79719"
       style="fill:none;stroke:#724dff;stroke-width:3;stroke-linecap:round;stroke-linejoin:round;stroke-miterlimit:4;stroke-opacity:1;stroke-dasharray:none;marker-end:url(#Arrow2Sendf)" />
    <path
       sodipodi:nodetypes="cc"
       id="path4555-8-1-2"
       d="m 512.21872,432.73712 c 32.46321,13.54754 33.50023,32.0571 35.80501,50.36649"
       style="fill:none;stroke:#724dff;stroke-width:3;stroke-linecap:round;stroke-linejoin:round;stroke-miterlimit:4;stroke-opacity:1;stroke-dasharray:none;marker-end:url(#Arrow2Sendf)" />
    <path
       sodipodi:nodetypes="cc"
       id="path4555-8-1-7"
       d="m 511.60628,432.12467 c -11.01029,22.13923 -31.15566,26.00828 -51.77419,28.93102"
       style="fill:none;stroke:#724dff;stroke-width:3;stroke-linecap:round;stroke-linejoin:round;stroke-miterlimit:4;stroke-opacity:1;stroke-dasharray:none;marker-end:url(#Arrow2Sendf)" />
    <path
       style="font-size:24px;font-style:normal;font-variant:normal;font-weight:normal;font-stretch:normal;text-align:center;line-height:100%;letter-spacing:normal;word-spacing:normal;writing-mode:lr-tb;text-anchor:middle;fill:#ff0000;fill-opacity:1;stroke:none;font-family:Sans;-inkscape-font-specification:Sans"
       d="m 297.36275,450.35291 0,18.25 2.15625,0 0,-18.25 -2.15625,0 z m -9.28125,4.8125 c -1.96876,10e-6 -3.52344,0.60939 -4.6875,1.875 -1.15625,1.25782 -1.75,2.97657 -1.75,5.125 0,2.07813 0.625,3.71875 1.84375,4.9375 1.22656,1.21875 2.87499,1.84375 4.96875,1.84375 0.83593,0 1.65624,-0.10938 2.46875,-0.28125 0.81249,-0.17188 1.60155,-0.42188 2.375,-0.75 l 0,-2.03125 c -0.76564,0.40625 -1.53126,0.70313 -2.3125,0.90625 -0.77345,0.20313 -1.57813,0.3125 -2.40625,0.3125 -1.42969,0 -2.53907,-0.38281 -3.34375,-1.15625 -0.79688,-0.78125 -1.25,-1.92187 -1.34375,-3.40625 l 9.90625,0 0,-1.03125 c -1e-5,-1.95312 -0.50001,-3.52343 -1.53125,-4.65625 -1.02345,-1.14061 -2.42188,-1.68749 -4.1875,-1.6875 z m 0.0312,1.8125 c 1.06249,10e-6 1.92187,0.35938 2.5625,1.0625 0.64843,0.70313 0.95311,1.63282 0.96875,2.8125 l -7.6875,0.0312 c 0.10937,-1.23437 0.53125,-2.1953 1.25,-2.875 0.72656,-0.67968 1.70312,-1.03124 2.90625,-1.03125 z m 32.125,3.375 0,8.25 2.15625,0 0,-7.4375 c 0,-0.29573 0.0275,-0.54542 0.0625,-0.8125 l -2.21875,0 z m 8.5,0 c 0.006,0.13335 0,0.26458 0,0.40625 l 0,7.84375 2.15625,0 0,-7.4375 c 0,-0.28733 0.0299,-0.55228 0.0625,-0.8125 l -2.21875,0 z m 8.5,0 c 0.006,0.13267 0,0.26546 0,0.40625 l 0,7.84375 2.15625,0 0,-7.9375 c 0,-0.11008 0.003,-0.20558 0,-0.3125 l -2.15625,0 z m 10.875,0 c -1.60987,0.082 -2.88184,0.43751 -3.75,1.09375 -0.98438,0.75 -1.46875,1.86719 -1.46875,3.34375 0,1.26563 0.39844,2.27344 1.1875,3.03125 0.79687,0.75 1.875,1.125 3.21875,1.125 1.06249,0 1.95312,-0.1875 2.6875,-0.5625 0.73437,-0.38281 1.35155,-0.98438 1.84375,-1.78125 l 0,2 2.15625,0 0,-7.5 c 0,-0.26696 -0.0458,-0.50114 -0.0625,-0.75 l -5.8125,0 z m 9.5,0 c -0.0704,0.48578 -0.125,0.98789 -0.125,1.53125 0,2.02344 0.48437,3.64844 1.46875,4.875 0.98437,1.22656 2.29687,1.84375 3.90625,1.84375 0.96874,0 1.80468,-0.21094 2.5,-0.59375 0.6953,-0.38281 1.27343,-0.94531 1.71875,-1.71875 l 0,1.0625 c -1e-5,1.49219 -0.35939,2.60937 -1.0625,3.34375 -0.70313,0.74218 -1.77345,1.125 -3.1875,1.125 -0.64063,0 -1.25782,-0.0859 -1.875,-0.25 -0.61719,-0.16407 -1.24219,-0.4375 -1.875,-0.78125 l 0,2.09375 c 0.63281,0.23437 1.26562,0.42187 1.9375,0.53125 0.67187,0.11718 1.39843,0.18749 2.15625,0.1875 2.04687,-1e-5 3.5703,-0.56251 4.5625,-1.65625 0.99217,-1.08594 1.49999,-2.73438 1.5,-4.96875 l 0,-6.625 -2.3125,0 c 0.084,0.47127 0.15625,0.9689 0.15625,1.53125 -1e-5,1.55469 -0.35157,2.76563 -1,3.625 -0.64063,0.85938 -1.52345,1.28125 -2.6875,1.28125 -1.15626,0 -2.07032,-0.42187 -2.71875,-1.28125 -0.64063,-0.85937 -0.96875,-2.07031 -0.96875,-3.625 0,-0.56235 0.0733,-1.05998 0.15625,-1.53125 l -2.25,0 z m 15.96875,0 0,8.25 2.15625,0 0,-7.4375 c 0,-0.28753 0.0599,-0.55212 0.0937,-0.8125 l -2.25,0 z m 8.8125,0 c 0.007,0.13581 0.0312,0.26201 0.0312,0.40625 l 0,7.84375 2.15625,0 0,-7.9375 c 0,-0.113 0.003,-0.20293 0,-0.3125 l -2.1875,0 z m 5.75,0 c -0.10511,0.56679 -0.1875,1.16475 -0.1875,1.8125 0,2.07813 0.625,3.71875 1.84375,4.9375 1.22656,1.21875 2.87499,1.84375 4.96875,1.84375 0.83593,0 1.65624,-0.10938 2.46875,-0.28125 0.81249,-0.17188 1.60155,-0.42188 2.375,-0.75 l 0,-2.03125 c -0.76564,0.40625 -1.53126,0.70313 -2.3125,0.90625 -0.77345,0.20313 -1.57813,0.3125 -2.40625,0.3125 -1.42969,0 -2.53907,-0.38281 -3.34375,-1.15625 -0.79688,-0.78125 -1.25,-1.92187 -1.34375,-3.40625 l 9.90625,0 0,-1.03125 c 0,-0.39964 -0.0193,-0.79096 -0.0625,-1.15625 l -2.125,0 c 0.0162,0.16418 0.0289,0.32538 0.0312,0.5 l -7.6875,0.0312 c 0.0166,-0.18729 0.0631,-0.35673 0.0937,-0.53125 l -2.21875,0 z m 15.5,0 0,3.90625 c 0,1.64063 0.30468,2.78125 0.9375,3.40625 0.63281,0.61719 1.77343,0.9375 3.4375,0.9375 l 2.21875,0 0,-1.8125 -2.21875,0 c -0.89844,0 -1.48438,-0.16406 -1.78125,-0.46875 -0.28907,-0.30469 -0.4375,-0.99219 -0.4375,-2.0625 l 0,-3.90625 -2.15625,0 z m 9.4375,0 0,8.25 2.15625,0 0,-8.25 -2.15625,0 z m 6.03125,0 c 0.14836,0.41209 0.35257,0.76281 0.65625,1.0625 0.59375,0.57813 1.57031,1.03125 2.90625,1.3125 l 0.75,0.15625 c 1.33593,0.28907 2.17187,0.59375 2.5625,0.90625 0.39843,0.3125 0.62499,0.75782 0.625,1.34375 -1e-5,0.63281 -0.29688,1.11719 -0.84375,1.46875 -0.54688,0.34375 -1.32813,0.53125 -2.34375,0.53125 -0.75782,0 -1.50782,-0.10937 -2.28125,-0.3125 -0.77344,-0.21094 -1.57813,-0.52344 -2.375,-0.9375 l 0,2.21875 c 0.84375,0.27344 1.64843,0.49219 2.40625,0.625 0.76562,0.14062 1.51562,0.21875 2.21875,0.21875 1.68749,0 3.0078,-0.35156 3.96875,-1.0625 0.96874,-0.71094 1.43749,-1.6875 1.4375,-2.90625 -1e-5,-1.07031 -0.32032,-1.90625 -0.96875,-2.5 -0.64063,-0.60156 -1.71876,-1.07812 -3.25,-1.40625 l -0.75,-0.15625 c -0.83023,-0.18511 -1.44354,-0.3653 -1.875,-0.5625 l -2.84375,0 z m 13.0625,0 0,8.25 2.15625,0 0,-7.4375 c 0,-0.29573 0.0275,-0.54542 0.0625,-0.8125 l -2.21875,0 z m 8.5,0 c 0.006,0.13335 0,0.26458 0,0.40625 l 0,7.84375 2.15625,0 0,-7.4375 c 0,-0.28733 0.0299,-0.55228 0.0625,-0.8125 l -2.21875,0 z m 8.5,0 c 0.006,0.13267 0,0.26546 0,0.40625 l 0,7.84375 2.15625,0 0,-7.9375 c 0,-0.11008 0.003,-0.20558 0,-0.3125 l -2.15625,0 z m -138.625,0.71875 0,1.90625 6.3125,0 0,-1.90625 -6.3125,0 z m 39.125,0.9375 2.15625,0 0,0.46875 c -1e-5,1.40625 -0.3672,2.52344 -1.09375,3.375 -0.71876,0.84375 -1.6797,1.28125 -2.875,1.28125 -0.86719,0 -1.55469,-0.21094 -2.0625,-0.65625 -0.5,-0.45312 -0.75,-1.07812 -0.75,-1.84375 0,-0.96093 0.32812,-1.63281 1,-2.03125 0.67187,-0.39843 1.88281,-0.59374 3.625,-0.59375 z m -45.375,3.625 0,2.96875 2.5,0 0,-2.96875 -2.5,0 z"
       id="text2926-4-2-0" />
    <text
       xml:space="preserve"
       style="font-size:24px;font-style:normal;font-variant:normal;font-weight:normal;font-stretch:normal;text-align:center;line-height:100%;letter-spacing:normal;word-spacing:normal;writing-mode:lr-tb;text-anchor:middle;fill:#724dff;fill-opacity:1;stroke:none;font-family:Sans;-inkscape-font-specification:Sans"
       x="445.67969"
       y="506.40179"
       id="text2926-4-7"
       sodipodi:linespacing="100%"><tspan
         sodipodi:role="line"
         x="445.67969"
         y="506.40179"
         id="tspan2930-5-4">p</tspan></text>
    <path
       style="font-size:24px;font-style:normal;font-variant:normal;font-weight:normal;font-stretch:normal;text-align:center;line-height:100%;letter-spacing:normal;word-spacing:normal;writing-mode:lr-tb;text-anchor:middle;fill:#ff0000;fill-opacity:1;stroke:none;font-family:Sans;-inkscape-font-specification:Sans"
       d="m 136.5874,424.66842 0,2.1875 2.1875,0 0,-2.1875 -2.1875,0 z m 8.84375,0 0,2.1875 2.15625,0 0,-2.1875 -2.15625,0 z m 9.4375,0 0.8125,1.96875 -0.375,1 c -0.39844,1.04687 -0.76563,1.71875 -1.09375,2 -0.32813,0.28125 -0.81251,0.40625 -1.40625,0.40625 l -1.25,0 0,1.8125 1.71875,0 c 0.96874,0 1.73437,-0.24219 2.3125,-0.71875 0.57812,-0.47657 1.17187,-1.5 1.78125,-3.0625 l 1.375,-3.40625 -3.875,0 z m 11.34375,0 c 0.13526,0.22722 0.30718,0.41891 0.46875,0.625 0.99999,1.26563 2.28906,1.90625 3.875,1.90625 0.96874,0 1.78124,-0.1875 2.46875,-0.5625 0.6953,-0.38281 1.26561,-0.96875 1.71875,-1.75 l 0,1.96875 2.15625,0 0,-2.1875 -3.6875,0 c -0.57701,0.48633 -1.28581,0.71875 -2.125,0.71875 -0.83921,0 -1.548,-0.23242 -2.125,-0.71875 l -2.75,0 z m 15.0625,0 0,2.1875 2.15625,0 0,-2.1875 -2.15625,0 z m 9.59375,0 c 0.15549,0.24761 0.34207,0.50036 0.53125,0.71875 1.07031,1.21875 2.52343,1.8125 4.40625,1.8125 1.87499,0 3.36718,-0.59375 4.4375,-1.8125 0.18847,-0.21599 0.34471,-0.47418 0.5,-0.71875 l -2.84375,0 c -0.57661,0.46082 -1.27482,0.71875 -2.09375,0.71875 -0.83008,0 -1.51395,-0.2619 -2.09375,-0.71875 l -2.84375,0 z m 14.625,0 c 0.13526,0.22722 0.30718,0.41891 0.46875,0.625 0.99999,1.26563 2.28906,1.90625 3.875,1.90625 0.96874,0 1.78124,-0.1875 2.46875,-0.5625 0.6953,-0.38281 1.26561,-0.96875 1.71875,-1.75 l 0,1.96875 2.15625,0 0,-2.1875 -3.6875,0 c -0.57701,0.48633 -1.28581,0.71875 -2.125,0.71875 -0.83921,0 -1.548,-0.23242 -2.125,-0.71875 l -2.75,0 z m 18.09375,0 0.8125,1.96875 -0.375,1 c -0.39844,1.04687 -0.76563,1.71875 -1.09375,2 -0.32813,0.28125 -0.8125,0.40625 -1.40625,0.40625 l -1.25,0 0,1.8125 1.71875,0 c 0.96875,0 1.73437,-0.24219 2.3125,-0.71875 0.57812,-0.47657 1.17187,-1.5 1.78125,-3.0625 l 1.375,-3.40625 -3.875,0 z m 11.15625,0 0,2.1875 2.1875,0 0,-2.1875 -2.1875,0 z m 8.84375,0 0,2.1875 2.15625,0 0,-2.1875 -2.15625,0 z m 5.9375,0 c 0.19659,0.54339 0.48859,1.00513 0.90625,1.40625 0.79687,0.75 1.875,1.125 3.21875,1.125 1.06249,0 1.95312,-0.1875 2.6875,-0.5625 0.73437,-0.38281 1.35155,-0.98437 1.84375,-1.78125 l 0,2 2.15625,0 0,-2.1875 -3.8125,0 c -0.63482,0.49185 -1.39988,0.71875 -2.3125,0.71875 -0.86719,0 -1.55469,-0.21094 -2.0625,-0.65625 -0.0225,-0.0204 -0.041,-0.0414 -0.0625,-0.0625 l -2.5625,0 z m 15.1875,0 0,2.1875 2.15625,0 0,-2.1875 -2.15625,0 z m 8.5,0 0,2.1875 2.15625,0 0,-2.1875 -2.15625,0 z m 8.5,0 0,2.1875 2.15625,0 0,-2.1875 -2.15625,0 z m 6.46875,0 0,2.1875 2.15625,0 0,-2.1875 -2.15625,0 z m 6.9375,0 c 0.16294,0.23363 0.33534,0.44719 0.53125,0.65625 1.16406,1.24219 2.74218,1.875 4.71875,1.875 0.72655,0 1.39062,-0.0781 2.03125,-0.21875 0.64843,-0.14062 1.27343,-0.34375 1.875,-0.625 l 0,-1.6875 -0.65625,0 c -0.39111,0.17677 -0.79321,0.35895 -1.1875,0.46875 -0.60938,0.16406 -1.21876,0.25 -1.84375,0.25 -1.02076,0 -1.87474,-0.2484 -2.5625,-0.71875 l -2.90625,0 z m 11.96875,0 0,1.71875 c 0.84375,0.27344 1.64843,0.46094 2.40625,0.59375 0.76562,0.14062 1.51562,0.21875 2.21875,0.21875 1.68749,0 3.0078,-0.35156 3.96875,-1.0625 0.55531,-0.40753 0.95051,-0.89436 1.1875,-1.46875 l -2.5,0 c -0.0842,0.077 -0.17735,0.15195 -0.28125,0.21875 -0.54688,0.34375 -1.32813,0.5 -2.34375,0.5 -0.75782,0 -1.50782,-0.0781 -2.28125,-0.28125 -0.40747,-0.11113 -0.83602,-0.26999 -1.25,-0.4375 l -1.125,0 z"
       id="text2926-4-5-5-7" />
    <path
       style="font-size:24px;font-style:normal;font-variant:normal;font-weight:normal;font-stretch:normal;text-align:center;line-height:100%;letter-spacing:normal;word-spacing:normal;writing-mode:lr-tb;text-anchor:middle;fill:#ff0000;fill-opacity:1;stroke:none;font-family:Sans;-inkscape-font-specification:Sans"
       d="m 220.46331,262.73013 0,2.71875 2.15625,0 0,-2.71875 -2.15625,0 z m 0,5.09375 0,0.0312 2.15625,0 0,-0.0312 -2.15625,0 z"
       id="text2926-1" />
    <text
       xml:space="preserve"
       style="font-size:24px;font-style:normal;font-variant:normal;font-weight:normal;font-stretch:normal;text-align:center;line-height:100%;letter-spacing:normal;word-spacing:normal;writing-mode:lr-tb;text-anchor:middle;fill:#ff0000;fill-opacity:1;stroke:none;font-family:Sans;-inkscape-font-specification:Sans"
       x="585.13928"
       y="289.50861"
       id="text2926-4-5-53"
       sodipodi:linespacing="100%"><tspan
         sodipodi:role="line"
         x="585.13928"
         y="289.50861"
         id="tspan2930-5-1-6">?</tspan></text>
  </g>
  <g
     style="fill-opacity:1;fill:#724dff"
     transform="translate(71.451564,-118.37497)"
     id="g3307">
    <g
       style="font-style:normal;font-variant:normal;font-weight:normal;font-stretch:normal;letter-spacing:normal;word-spacing:normal;text-anchor:start;fill:#724dff;fill-opacity:1;stroke:#000000;stroke-linecap:butt;stroke-linejoin:miter;stroke-miterlimit:10.43299961;stroke-opacity:1;stroke-dasharray:none;stroke-dashoffset:0"
       id="content"
       transform="matrix(0.42458706,0,0,-0.42458706,-74.302735,403.11329)"
       xml:space="preserve"
       stroke-miterlimit="10.433"
       fill-rule="even-odd"
       font-style="normal"
       font-variant="normal"
       font-weight="normal"
       font-stretch="normal"
       font-size-adjust="none"
       letter-spacing="normal"
       word-spacing="normal"><path
         style="fill:#724dff;fill-opacity:1;stroke-width:0"
         d="m 493.86,440.62 0,0.02 0,0.01 0,0.02 -0.01,0.02 0,0.01 0,0.02 -0.01,0.02 0,0.02 -0.01,0.02 -0.01,0.02 -0.01,0.02 -0.01,0.02 -0.01,0.02 -0.01,0.02 -0.01,0.02 -0.02,0.02 -0.01,0.02 -0.02,0.02 -0.02,0.02 -0.02,0.02 -0.02,0.02 -0.02,0.01 -0.03,0.02 -0.03,0.01 -0.02,0.01 -0.02,0.01 -0.01,0 -0.02,0.01 -0.02,0 -0.01,0.01 -0.02,0 -0.02,0.01 -0.01,0 -0.02,0 -0.02,0 -0.02,0 -0.02,0.01 -0.02,0 -0.02,0 c -0.15,0 -0.2,-0.05 -0.75,-0.6 l -3.49,-3.84 c -0.44,0.7 -2.73,4.44 -8.26,4.44 -11.11,0 -22.32,-11.01 -22.32,-22.57 0,-7.92 5.53,-13.65 13.6,-13.65 2.19,0 4.43,0.45 6.23,1.2 2.49,1 3.43,2.04 4.33,3.04 0.45,-1.25 1.74,-3.09 2.24,-3.09 0.25,0 0.35,0.15 0.35,0.2 0.1,0.1 0.6,1.99 0.85,3.04 l 0.95,3.83 c 0.19,0.85 0.44,1.7 0.64,2.54 0.55,2.25 0.6,2.34 3.44,2.39 0.25,0 0.79,0.06 0.79,1 0,0.35 -0.24,0.55 -0.64,0.55 h -12.21 c -0.45,0 -1.04,0 -1.04,-1 0,-0.55 0.39,-0.55 1.49,-0.55 0.05,0 1.5,0 2.64,-0.09 1.3,-0.16 1.55,-0.3 1.55,-0.95 0,-0.45 -0.55,-2.69 -1.05,-4.53 -1.4,-5.48 -7.87,-6.03 -9.61,-6.03 -4.79,0 -10.02,2.84 -10.02,10.46 0,1.54 0.5,9.76 5.73,16.24 2.69,3.39 7.52,6.42 12.46,6.42 5.08,0 8.02,-3.83 8.02,-9.61 0,-1.99 -0.16,-2.04 -0.16,-2.54 0,-0.5 0.55,-0.5 0.75,-0.5 0.65,0 0.65,0.1 0.9,1 z"
         id="path3310" /><path
         style="fill:#724dff;fill-opacity:1;stroke-width:0"
         d="m 496.88,393.39 -0.01,-0.05 -0.01,-0.05 -0.01,-0.04 -0.01,-0.04 -0.01,-0.04 -0.01,-0.04 -0.01,-0.04 -0.01,-0.03 -0.01,-0.04 0,-0.03 -0.01,-0.03 0,-0.03 -0.01,-0.02 0,-0.03 -0.01,-0.02 0,-0.02 0,-0.02 -0.01,-0.02 0,-0.02 0,-0.02 0,-0.01 0,-0.02 0,-0.01 -0.01,-0.01 0,-0.01 0,-0.01 0,-0.01 0,-0.01 0,0 0,-0.01 0,0 0,-0.01 c 0,-0.76 0.63,-1.11 1.19,-1.11 1.25,0 1.53,1.15 1.67,1.74 0.07,0.18 0.77,2.97 1.61,6.38 1.08,-0.73 2.47,-1.01 3.73,-1.01 3,0 4.95,2.44 5.02,2.51 0.66,-2.4 3.07,-2.51 3.59,-2.51 1.25,0 2.13,0.77 2.75,1.85 0.77,1.36 1.23,3.35 1.23,3.48 0,0.46 -0.46,0.46 -0.56,0.46 -0.49,0 -0.52,-0.14 -0.77,-1.08 -0.42,-1.68 -1.08,-3.73 -2.54,-3.73 -0.91,0 -1.16,0.76 -1.16,1.71 0,0.59 0.28,1.84 0.53,2.75 0.24,0.94 0.59,2.37 0.76,3.14 l 0.81,3.1 c 0.2,0.87 0.59,2.41 0.59,2.58 0,0.7 -0.56,1.12 -1.15,1.12 -0.38,0 -1.05,-0.17 -1.43,-0.84 -0.11,-0.21 -0.38,-1.32 -0.56,-2.02 l -0.73,-2.9 -1.08,-4.35 c -0.25,-0.88 -0.25,-0.94 -0.56,-1.4 -1.08,-1.53 -2.61,-2.89 -4.6,-2.89 -2.86,0 -2.86,2.47 -2.86,3.1 0,0.91 0.1,1.36 0.59,3.24 0.35,1.54 0.42,1.78 0.77,3.14 l 0.49,1.96 c 0.17,0.73 0.52,2.05 0.52,2.19 0,0.63 -0.49,1.12 -1.19,1.12 -1.25,0 -1.56,-1.22 -1.67,-1.64 z"
         id="path3312" /><path
         style="fill:#724dff;fill-opacity:1;stroke-width:0"
         d="m 527.75,413.37 0.01,0.01 0,0.01 0.01,0.03 0,0.03 0.01,0.03 0,0.03 0.01,0.04 0,0.03 0.01,0.03 0,0.04 0.01,0.03 0,0.04 0,0.03 0.01,0.04 0,0.03 0,0.04 0,0.03 c 0,0.04 0,0.49 -0.55,0.49 -0.04,0 -2.03,-0.18 -2.27,-0.18 -0.66,-0.07 -1.29,-0.1 -1.96,-0.17 -0.55,-0.04 -0.97,-0.07 -0.97,-0.8 0,-0.49 0.49,-0.49 0.91,-0.49 1.67,0 1.67,-0.21 1.67,-0.53 0,-0.2 -0.18,-0.9 -0.31,-1.35 l -1.75,-7.05 c -0.87,-3.49 -1.04,-4.18 -1.04,-4.32 0,-0.49 0.52,-0.49 0.66,-0.49 h 0.56 c 3.1,0.49 7.53,2.13 11.26,5.44 4.74,4.22 5.44,8.75 5.44,8.82 0,0.63 -0.49,1.12 -1.19,1.12 -1.22,0 -1.46,-0.98 -1.78,-1.95 -1.39,-4.96 -6.06,-10.29 -11.99,-12.04 z"
         id="path3314" /><path
         style="fill:#724dff;fill-opacity:1;stroke-width:0"
         d="m 592.22,422.29 0.14,0 0.15,0 0.15,0.01 0.07,0 0.07,0 0.07,0.01 0.08,0.01 0.07,0.01 0.07,0.01 0.06,0.02 0.07,0.01 0.07,0.02 0.06,0.02 0.06,0.03 0.06,0.03 0.05,0.03 0.06,0.03 0.05,0.04 0.04,0.04 0.05,0.05 0.03,0.05 0.02,0.03 0.02,0.02 0.02,0.03 0.01,0.03 0.02,0.03 0.01,0.04 0.01,0.03 0.01,0.04 0.01,0.03 0.01,0.04 0.01,0.04 0,0.04 0.01,0.04 0,0.04 0,0.05 0,0.05 c 0,0.99 -0.94,0.99 -1.64,0.99 h -29.84 c -0.7,0 -1.64,0 -1.64,-0.99 0,-1 0.94,-1 1.69,-1 z"
         id="path3316" /><path
         style="fill:#724dff;fill-opacity:1;stroke-width:0"
         d="m 592.27,412.62 0.13,0.01 0.14,0 0.14,0 0.07,0.01 0.07,0 0.07,0.01 0.07,0.01 0.07,0.01 0.07,0.01 0.06,0.01 0.07,0.02 0.06,0.02 0.06,0.02 0.06,0.02 0.06,0.03 0.06,0.03 0.05,0.04 0.05,0.04 0.04,0.04 0.05,0.04 0.02,0.03 0.02,0.03 0.01,0.02 0.02,0.03 0.02,0.03 0.01,0.03 0.02,0.03 0.01,0.03 0.01,0.04 0.01,0.03 0.01,0.04 0.01,0.04 0.01,0.04 0,0.04 0.01,0.04 0,0.04 0,0.05 0,0.04 c 0,1 -0.94,1 -1.69,1 h -29.74 c -0.75,0 -1.69,0 -1.69,-1 0,-1 0.94,-1 1.64,-1 z"
         id="path3318" /><path
         style="fill:#724dff;fill-opacity:1;stroke-width:0"
         d="m 628.38,438.59 0.25,0.12 0.25,0.13 0.24,0.13 0.23,0.13 0.23,0.13 0.22,0.14 0.22,0.14 0.2,0.14 0.21,0.14 0.19,0.15 0.19,0.14 0.18,0.15 0.17,0.16 0.16,0.15 0.16,0.16 0.15,0.17 0.14,0.16 0.14,0.17 0.12,0.17 0.12,0.18 0.11,0.18 0.1,0.18 0.09,0.19 0.08,0.19 0.07,0.19 0.06,0.2 0.06,0.2 0.04,0.21 0.04,0.21 0.02,0.21 0.02,0.22 0,0.23 c 0,3.38 -3.52,5.19 -6.9,5.19 l -0.07,-1.01 c 2.72,0 5.12,-1.71 5.12,-4.18 0,-3.1 -3.62,-4.67 -3.69,-4.67 -0.07,0 -0.14,0.03 -0.39,0.17 l -4.21,2.44 c -0.91,0.52 -1.89,1.46 -1.89,2.76 0,2.19 2.54,3.48 5.06,3.48 l 0.07,1.01 c -3.84,0 -6.97,-2.51 -6.97,-5.82 0,-1.64 0.76,-2.83 1.39,-3.52 0.62,-0.74 0.87,-0.87 2.93,-2.1 -1.95,-0.83 -5.41,-2.71 -5.41,-6.37 0,-3.88 4.02,-6.04 7.99,-6.04 l 0.07,1.12 c -3.21,0 -5.96,2.06 -5.96,4.92 0,2.57 1.92,4.56 4.42,5.71 h 0 l 4.78,-2.75 c 0.91,-0.52 2.65,-1.57 2.65,-3.63 0,-2.61 -2.89,-4.25 -5.89,-4.25 l -0.07,-1.12 c 4.43,0 8.05,2.83 8.05,6.59 0,2.31 -1.36,4.26 -3.38,5.44 -0.45,0.28 -1.67,0.98 -2.16,1.26 z"
         id="path3320" /><path
         style="fill:#724dff;fill-opacity:1;stroke-width:0"
         d="m 646.84,438.66 h 4.15 c -0.52,-2.09 -1.29,-5.27 -1.29,-8.02 0,-1.4 0.18,-2.34 0.39,-3.1 0.56,-1.75 1.01,-1.89 1.57,-1.89 0.8,0 1.64,0.73 1.64,1.57 0,0.28 -0.07,0.42 -0.28,0.77 -0.67,1.29 -1.29,3.28 -1.29,6.13 0,0.67 0,2.06 0.49,4.54 h 4.35 c 0.63,0 0.91,0 1.29,0.28 0.49,0.35 0.6,0.9 0.6,1.08 0,1.01 -0.91,1.01 -1.5,1.01 h -13.15 c -1.43,0 -2.4,-0.32 -3.97,-1.78 -0.91,-0.8 -2.27,-2.68 -2.27,-3 0,-0.42 0.45,-0.42 0.59,-0.42 0.39,0 0.42,0.07 0.63,0.38 1.78,2.45 3.94,2.45 4.71,2.45 h 2.12 c -1.08,-3.84 -2.96,-7.95 -4.01,-10.05 -0.2,-0.45 -0.56,-1.18 -0.66,-1.32 -0.03,-0.14 -0.1,-0.28 -0.1,-0.52 0,-0.56 0.42,-1.12 1.22,-1.12 1.39,0 1.77,1.57 2.61,4.71 z"
         id="path3322" /><path
         style="fill:#724dff;fill-opacity:1;stroke-width:0"
         d="m 689.4,450.06 -0.01,0.02 0,0.01 0,0.02 0,0.02 0,0.02 -0.01,0.02 0,0.01 -0.01,0.02 0,0.02 -0.01,0.02 -0.01,0.02 -0.01,0.02 -0.01,0.02 -0.01,0.02 -0.01,0.01 -0.01,0.02 -0.02,0.02 -0.01,0.01 -0.02,0.02 -0.01,0.01 -0.02,0.02 -0.02,0.01 -0.02,0.01 -0.02,0.02 -0.02,0.01 -0.03,0.01 -0.02,0 -0.03,0.01 -0.01,0 -0.02,0 -0.01,0.01 -0.02,0 -0.01,0 -0.02,0 -0.01,0 -0.02,0 c -0.24,0 -0.31,-0.07 -0.63,-0.42 l -2.54,-2.68 c -0.32,0.42 -2.27,3.1 -6.55,3.1 -8.48,0 -16.78,-7.49 -16.78,-15.37 0,-5.41 4.11,-9.84 10.81,-9.84 3.07,0 6.31,0.81 8.13,2.76 0.34,-0.77 1.28,-2.02 1.7,-2.02 0.32,0 0.39,0.14 0.56,0.87 l 0.66,2.68 c 0.18,0.63 0.67,2.72 0.77,3.14 0.42,1.57 0.45,1.6 2.51,1.64 0.24,0 0.77,0 0.77,0.73 0,0.35 -0.25,0.52 -0.53,0.52 h -9.48 c -0.24,0 -0.77,0 -0.77,-0.76 0,-0.49 0.39,-0.49 1.26,-0.49 0.66,0 1.36,0 2.02,-0.07 1.12,-0.1 1.15,-0.25 1.15,-0.66 0,-0.14 0,-0.21 -0.24,-1.12 -0.24,-0.98 -0.63,-2.54 -0.77,-2.9 -1.01,-2.12 -4.25,-3.06 -6.97,-3.06 -3.49,0 -8.06,1.67 -8.06,7.56 0,3.74 1.75,8.41 4.32,11.02 3.6,3.56 7.33,4.12 9.28,4.12 4.04,0 6.42,-2.93 6.42,-6.84 0,-0.97 -0.11,-1.22 -0.11,-1.43 0,-0.45 0.46,-0.45 0.63,-0.45 0.56,0 0.56,0.1 0.73,0.77 z"
         id="path3324" /><polyline
         style="fill:#724dff;fill-opacity:1;fill-rule:nonzero;stroke-width:0"
         points="616,418 691.48,418 691.48,420.04 616,420.04 "
         id="polyline3326" /><path
         style="fill:#724dff;fill-opacity:1;stroke-width:0"
         d="m 650.27,402.36 -0.11,-0.03 -0.11,-0.02 -0.11,-0.03 -0.1,-0.04 -0.1,-0.04 -0.1,-0.04 -0.09,-0.04 -0.08,-0.05 -0.09,-0.05 -0.08,-0.06 -0.07,-0.05 -0.07,-0.06 -0.07,-0.07 -0.06,-0.06 -0.06,-0.07 -0.06,-0.06 -0.05,-0.07 -0.05,-0.07 -0.04,-0.08 -0.04,-0.07 -0.04,-0.07 -0.04,-0.08 -0.03,-0.07 -0.02,-0.08 -0.03,-0.08 -0.02,-0.07 -0.02,-0.08 -0.01,-0.07 -0.01,-0.08 -0.01,-0.07 0,-0.08 0,-0.07 c 0,-0.94 0.73,-1.29 1.35,-1.29 0.77,0 1.99,0.56 1.99,2.23 0,2.37 -2.72,3.04 -4.6,3.04 -5.23,0 -10.08,-4.81 -10.08,-9.66 0,-3 2.09,-6.07 6.45,-6.07 5.89,0 8.65,3.45 8.65,3.94 0,0.21 -0.31,0.59 -0.59,0.59 -0.21,0 -0.28,-0.07 -0.56,-0.34 -2.72,-3.21 -6.8,-3.21 -7.43,-3.21 -2.51,0 -3.63,1.71 -3.63,3.87 0,1.01 0.49,4.81 2.3,7.21 1.33,1.72 3.15,2.69 4.89,2.69 0.49,0 2.16,-0.07 3.03,-1.04 z"
         id="path3328" /><path
         style="fill:#724dff;fill-opacity:1;stroke-width:0"
         d="m 668.37,403.06 v 1.1 h -3.12 v 10.95 c 0,0.6 -0.02,0.75 -0.67,0.75 -0.5,0 -0.52,-0.02 -0.8,-0.37 l -9.21,-11.33 v -1.1 h 8.29 l 0.2,1.1 h -7.32 l 7.32,9.01 v -9.01 l -0.2,-1.1 v -1.94 c 0,-0.78 0,-1.02 -2.16,-1.02 h -0.88 V 399 h 8.47 v 1.1 h -0.87 c -2.17,0 -2.17,0.24 -2.17,1.02 v 1.94 z"
         id="path3330" /><path
         style="fill:#724dff;fill-opacity:1;stroke-width:0"
         d="m 719.27,436.24 0.03,0.13 0.03,0.12 0.03,0.11 0.03,0.11 0.03,0.11 0.03,0.09 0.03,0.1 0.03,0.08 0.03,0.09 0.03,0.07 0.03,0.08 0.03,0.06 0.03,0.07 0.03,0.06 0.03,0.05 0.03,0.06 0.03,0.04 0.03,0.05 0.04,0.04 0.03,0.04 0.04,0.03 0.03,0.04 0.04,0.03 0.04,0.02 0.04,0.03 0.05,0.02 0.04,0.02 0.05,0.02 0.05,0.02 0.05,0.02 0.05,0.01 0.05,0.02 c 0.45,0.1 2.1,0.1 3.14,0.1 5.04,0 7.28,-0.2 7.28,-4.09 0,-0.74 -0.2,-2.68 -0.4,-3.98 -0.05,-0.2 -0.15,-0.8 -0.15,-0.95 0,-0.3 0.15,-0.64 0.6,-0.64 0.55,0 0.64,0.39 0.74,1.14 l 1.35,8.67 c 0.05,0.2 0.1,0.7 0.1,0.85 0,0.54 -0.5,0.54 -1.35,0.54 h -27.64 c -1.2,0 -1.25,-0.05 -1.6,-0.99 l -2.98,-8.77 c -0.05,-0.1 -0.3,-0.8 -0.3,-0.9 0,-0.29 0.25,-0.54 0.59,-0.54 0.5,0 0.55,0.25 0.85,1.04 2.69,7.72 3.98,8.62 11.36,8.62 h 1.94 c 1.4,0 1.4,-0.2 1.4,-0.6 0,-0.3 -0.16,-0.9 -0.2,-1.04 l -6.68,-26.61 c -0.45,-1.84 -0.6,-2.39 -5.93,-2.39 -1.79,0 -2.09,0 -2.09,-0.94 0,-0.6 0.55,-0.6 0.85,-0.6 1.34,0 2.74,0.1 4.08,0.1 h 8.37 c 1.44,0 2.94,-0.1 4.33,-0.1 0.5,0 1.1,0 1.1,1 0,0.54 -0.4,0.54 -1.69,0.54 -1.25,0 -1.89,0 -3.19,0.1 -1.45,0.15 -1.84,0.3 -1.84,1.1 0,0.05 0,0.3 0.2,1.05 z"
         id="path3332" /><path
         style="fill:#724dff;fill-opacity:1;stroke-width:0"
         d="m 728.88,393.39 -0.01,-0.05 -0.01,-0.05 -0.01,-0.04 -0.01,-0.04 -0.01,-0.04 -0.01,-0.04 -0.01,-0.04 -0.01,-0.03 -0.01,-0.04 0,-0.03 -0.01,-0.03 0,-0.03 -0.01,-0.02 0,-0.03 -0.01,-0.02 0,-0.02 0,-0.02 -0.01,-0.02 0,-0.02 0,-0.02 0,-0.01 0,-0.02 0,-0.01 -0.01,-0.01 0,-0.01 0,-0.01 0,-0.01 0,-0.01 0,0 0,-0.01 0,0 0,-0.01 c 0,-0.76 0.63,-1.11 1.19,-1.11 1.25,0 1.54,1.15 1.67,1.74 0.07,0.18 0.77,2.97 1.61,6.38 1.08,-0.73 2.47,-1.01 3.73,-1.01 3,0 4.95,2.44 5.02,2.51 0.66,-2.4 3.07,-2.51 3.59,-2.51 1.25,0 2.13,0.77 2.75,1.85 0.77,1.36 1.23,3.35 1.23,3.48 0,0.46 -0.46,0.46 -0.56,0.46 -0.49,0 -0.52,-0.14 -0.77,-1.08 -0.42,-1.68 -1.08,-3.73 -2.54,-3.73 -0.91,0 -1.16,0.76 -1.16,1.71 0,0.59 0.28,1.84 0.53,2.75 0.24,0.94 0.59,2.37 0.76,3.14 l 0.81,3.1 c 0.2,0.87 0.59,2.41 0.59,2.58 0,0.7 -0.56,1.12 -1.15,1.12 -0.38,0 -1.05,-0.17 -1.43,-0.84 -0.11,-0.21 -0.38,-1.32 -0.56,-2.02 l -0.73,-2.9 -1.08,-4.35 c -0.25,-0.88 -0.25,-0.94 -0.56,-1.4 -1.08,-1.53 -2.61,-2.89 -4.6,-2.89 -2.86,0 -2.86,2.47 -2.86,3.1 0,0.91 0.1,1.36 0.59,3.24 0.35,1.54 0.42,1.78 0.77,3.14 l 0.49,1.96 c 0.17,0.73 0.52,2.05 0.52,2.19 0,0.63 -0.49,1.12 -1.19,1.12 -1.25,0 -1.56,-1.22 -1.67,-1.64 z"
         id="path3334" /><path
         style="fill:#724dff;fill-opacity:1;stroke-width:0"
         d="m 759.75,413.37 0.01,0.01 0,0.01 0.01,0.03 0,0.03 0.01,0.03 0,0.03 0.01,0.04 0,0.03 0.01,0.03 0,0.04 0.01,0.03 0,0.04 0,0.03 0.01,0.04 0,0.03 0,0.04 0,0.03 c 0,0.04 0,0.49 -0.55,0.49 -0.04,0 -2.03,-0.18 -2.27,-0.18 -0.66,-0.07 -1.29,-0.1 -1.96,-0.17 -0.55,-0.04 -0.97,-0.07 -0.97,-0.8 0,-0.49 0.49,-0.49 0.91,-0.49 1.67,0 1.67,-0.21 1.67,-0.53 0,-0.2 -0.18,-0.9 -0.31,-1.35 l -1.75,-7.05 c -0.87,-3.49 -1.04,-4.18 -1.04,-4.32 0,-0.49 0.52,-0.49 0.66,-0.49 h 0.56 c 3.1,0.49 7.53,2.13 11.26,5.44 4.74,4.22 5.44,8.75 5.44,8.82 0,0.63 -0.49,1.12 -1.19,1.12 -1.22,0 -1.46,-0.98 -1.78,-1.95 -1.39,-4.96 -6.06,-10.29 -11.99,-12.04 z"
         id="path3336" /></g>  </g>
</svg>
